<svg width="333" height="144" viewBox="0 0 333 144" fill="none" xmlns="http://www.w3.org/2000/svg">
<path d="M218.98 68H223.57V76.46H223.72L230.68 68H235.96L227.8 77.81L236.29 89H230.62L223.72 79.61H223.57V89H218.98V68ZM245.99 68H250.58V89H245.99V68ZM261.544 68H266.494L274.204 80.78L274.564 82.49H274.774V68H279.364V89H274.414L266.704 76.22L266.344 74.51H266.134V89H261.544V68ZM300.572 89.3C298.532 89.3 296.682 88.84 295.022 87.92C293.382 86.98 292.082 85.69 291.122 84.05C290.182 82.41 289.712 80.56 289.712 78.5C289.712 76.42 290.172 74.56 291.092 72.92C292.032 71.28 293.312 70 294.932 69.08C296.572 68.16 298.422 67.7 300.482 67.7C302.882 67.7 304.942 68.29 306.662 69.47C308.382 70.65 309.522 72.31 310.082 74.45L309.842 74.84L305.732 75.41C305.372 74.19 304.752 73.26 303.872 72.62C302.992 71.98 301.862 71.66 300.482 71.66C299.282 71.66 298.212 71.95 297.272 72.53C296.352 73.11 295.632 73.92 295.112 74.96C294.592 76 294.332 77.18 294.332 78.5C294.332 79.84 294.582 81.02 295.082 82.04C295.602 83.06 296.332 83.86 297.272 84.44C298.232 85 299.352 85.28 300.632 85.28C302.112 85.28 303.292 84.91 304.172 84.17C305.072 83.43 305.662 82.37 305.942 80.99H298.622V77.45H310.292V79.16C310.292 81.14 309.892 82.9 309.092 84.44C308.312 85.96 307.182 87.15 305.702 88.01C304.242 88.87 302.532 89.3 300.572 89.3Z" fill="url(#paint0_linear_112_2)" fill-opacity="0.8"/>
<path d="M20.36 68H25.22L28.46 80.39L28.85 83.18H29.03L29.45 80.39L33.02 68H37.34L40.94 80.39L41.33 83.18H41.51L41.93 80.39L45.14 68H50L43.91 89H39.2L35.18 74.15L31.16 89H26.45L20.36 68ZM59.3316 68H73.2516V71.9H63.9216V76.55H72.4416V80.45H63.9216V85.1H73.5816V89H59.3316V68ZM84.1441 68H93.2641C94.6041 68 95.7841 68.23 96.8041 68.69C97.8241 69.15 98.6141 69.79 99.1741 70.61C99.7341 71.41 100.014 72.31 100.014 73.31C100.014 74.37 99.8141 75.24 99.4141 75.92C99.0141 76.58 98.4141 77.16 97.6141 77.66V77.87C98.6741 78.27 99.5241 78.89 100.164 79.73C100.824 80.55 101.154 81.57 101.154 82.79C101.154 84.01 100.844 85.09 100.224 86.03C99.6241 86.97 98.7441 87.7 97.5841 88.22C96.4441 88.74 95.0841 89 93.5041 89H84.1441V68ZM93.1741 76.37C93.9941 76.37 94.6241 76.18 95.0641 75.8C95.5241 75.42 95.7541 74.87 95.7541 74.15C95.7541 73.41 95.5241 72.85 95.0641 72.47C94.6241 72.09 93.9941 71.9 93.1741 71.9H88.7341V76.37H93.1741ZM93.9241 85.1C94.7441 85.1 95.4041 84.9 95.9041 84.5C96.4041 84.08 96.6541 83.47 96.6541 82.67C96.6541 81.89 96.3941 81.3 95.8741 80.9C95.3741 80.48 94.7241 80.27 93.9241 80.27H88.7341V85.1H93.9241Z" fill="url(#paint1_linear_112_2)" fill-opacity="0.8"/>
<path d="M161.53 80.1711L158.016 83.3546L158.012 80.7008L154.189 85.4639L155.742 85.4151L150.811 89.8828L146.001 85.525L147.546 85.5066L143.609 81.039L143.586 83.3351L140.063 80.1454L141.285 77.0938H160.298L161.53 80.1711Z" fill="url(#paint2_linear_112_2)" fill-opacity="0.8"/>
<path d="M175.232 53.0769L171.342 56.6126H170.396L170.387 56.2739L169.916 56.2616L168.378 58.1458L167.907 58.1594L168.18 56.4759V54.9919H166.96V56.1853L166.431 56.6015L165.526 56.6261L165.241 55.7087H164.583L163.642 58.0202H165.526V59.0264H163.195L160.616 64.3046L162.253 53.7481L170.289 48.3184L175.232 53.0769Z" fill="url(#paint3_linear_112_2)" fill-opacity="0.8"/>
<path d="M175.232 53.0769L171.342 56.6126H170.396L170.387 56.2739L169.916 56.2616L168.378 58.1458L167.907 58.1594L168.18 56.4759V54.9919H166.96V56.1853L166.431 56.6015L165.526 56.6261L165.241 55.7087H164.583L163.642 58.0202H165.526V59.0264H163.195L160.616 64.3046L162.253 53.7481L170.289 48.3184L175.232 53.0769Z" fill="url(#paint4_linear_112_2)" fill-opacity="0.8"/>
<path d="M178.429 22.7928C178.451 22.9256 177.1 23.0861 175.598 23.7113C174.36 24.2291 173.563 24.8338 172.364 25.7487C171.327 26.5458 170.357 27.4241 169.466 28.375C168.817 29.0649 168.21 29.7902 167.646 30.5475C166.961 31.466 166.884 31.7038 165.557 33.7664C164.958 34.6982 165.119 34.4242 163.873 36.3276C162.182 38.9044 162.182 38.966 161.783 39.4789C160.609 41.0021 159.059 42.5398 158.819 42.3684C158.673 42.2658 159.074 41.5935 159.678 40.2997C160.596 38.3347 160.562 37.9775 161.412 35.9317C162.14 34.178 162.805 32.5788 164.012 30.7092C164.912 29.2528 165.996 27.9119 167.238 26.7178C168.395 25.6183 169.695 24.4065 171.763 23.6148C172.715 23.2568 173.708 23.0089 174.719 22.8761C175.215 22.8109 175.92 22.7904 177.319 22.7554C178.181 22.7289 178.419 22.7385 178.429 22.7928Z" fill="url(#paint5_linear_112_2)" fill-opacity="0.8"/>
<path d="M178.429 22.7928C178.451 22.9256 177.1 23.0861 175.598 23.7113C174.36 24.2291 173.563 24.8338 172.364 25.7487C171.327 26.5458 170.357 27.4241 169.466 28.375C168.817 29.0649 168.21 29.7902 167.646 30.5475C166.961 31.466 166.884 31.7038 165.557 33.7664C164.958 34.6982 165.119 34.4242 163.873 36.3276C162.182 38.9044 162.182 38.966 161.783 39.4789C160.609 41.0021 159.059 42.5398 158.819 42.3684C158.673 42.2658 159.074 41.5935 159.678 40.2997C160.596 38.3347 160.562 37.9775 161.412 35.9317C162.14 34.178 162.805 32.5788 164.012 30.7092C164.912 29.2528 165.996 27.9119 167.238 26.7178C168.395 25.6183 169.695 24.4065 171.763 23.6148C172.715 23.2568 173.708 23.0089 174.719 22.8761C175.215 22.8109 175.92 22.7904 177.319 22.7554C178.181 22.7289 178.419 22.7385 178.429 22.7928Z" fill="url(#paint6_linear_112_2)" fill-opacity="0.8"/>
<path d="M193.383 45.1207C193.273 45.1318 193.276 44.3245 192.711 43.402C192.456 43.0057 192.151 42.6437 191.805 42.3248C191.41 41.9313 190.983 41.5706 190.53 41.2463C189.006 40.1158 188.02 39.4262 188.02 39.4262C185.943 37.9911 186.084 38.1161 185.872 37.9403C184.975 37.2018 184.186 36.3402 183.529 35.3809C182.789 34.3062 182.604 33.6697 182.555 33.1237C182.502 32.5294 182.598 31.8979 182.757 31.8756C182.916 31.8533 182.991 32.4773 183.562 33.2908C183.826 33.6702 184.142 34.0103 184.501 34.3012C184.871 34.6033 185.233 34.7841 185.944 35.1444C186.417 35.3847 186.51 35.4032 186.884 35.6162C187.258 35.8292 187.451 35.9753 187.824 36.2229C188.429 36.6266 188.709 36.769 189.132 37.0315C190.007 37.5524 190.818 38.1759 191.547 38.8888C192.156 39.4967 192.604 39.945 192.957 40.7089C193.309 41.4729 193.377 42.1576 193.46 43.0999C193.54 44.1165 193.503 45.1083 193.383 45.1207Z" fill="url(#paint7_linear_112_2)" fill-opacity="0.8"/>
<path d="M201.141 61.0341C200.979 61.7429 200.647 62.516 200.479 62.4764C200.311 62.4369 200.479 61.696 200.284 60.6315C200.238 60.3783 200.112 59.7732 199.628 58.7655C198.269 55.9253 195.847 52.9183 195.847 52.9183C194.255 50.9424 192.912 49.2691 191.915 48.1293C191.466 47.6206 191.077 47.0626 190.755 46.4659C190.536 46.0618 190.351 45.6405 190.201 45.2063C189.98 44.6433 189.861 44.046 189.847 43.4416C189.847 43.139 189.847 42.4302 190.05 42.3833C190.297 42.3265 190.595 43.2749 191.31 44.3999C191.585 44.8333 191.896 45.2507 192.973 46.4153C194.238 47.7835 194.816 48.2985 196.555 50.0446C198.324 51.8241 199.034 52.6071 199.732 53.8259C199.973 54.2506 200.192 54.688 200.387 55.1362C200.629 55.74 200.814 56.3645 200.942 57.0021C201.119 57.7922 201.223 58.5971 201.252 59.4065C201.29 59.9515 201.252 60.4992 201.141 61.0341Z" fill="url(#paint8_linear_112_2)" fill-opacity="0.8"/>
<path d="M201.141 61.0341C200.979 61.7429 200.647 62.516 200.479 62.4764C200.311 62.4369 200.479 61.696 200.284 60.6315C200.238 60.3783 200.112 59.7732 199.628 58.7655C198.269 55.9253 195.847 52.9183 195.847 52.9183C194.255 50.9424 192.912 49.2691 191.915 48.1293C191.466 47.6206 191.077 47.0626 190.755 46.4659C190.536 46.0618 190.351 45.6405 190.201 45.2063C189.98 44.6433 189.861 44.046 189.847 43.4416C189.847 43.139 189.847 42.4302 190.05 42.3833C190.297 42.3265 190.595 43.2749 191.31 44.3999C191.585 44.8333 191.896 45.2507 192.973 46.4153C194.238 47.7835 194.816 48.2985 196.555 50.0446C198.324 51.8241 199.034 52.6071 199.732 53.8259C199.973 54.2506 200.192 54.688 200.387 55.1362C200.629 55.74 200.814 56.3645 200.942 57.0021C201.119 57.7922 201.223 58.5971 201.252 59.4065C201.29 59.9515 201.252 60.4992 201.141 61.0341Z" fill="url(#paint9_linear_112_2)" fill-opacity="0.8"/>
<path d="M202.583 76.1647C202.569 76.3654 202.51 77.1595 202.398 77.7968C201.974 80.1914 200.468 82.2005 200.295 82.1153C200.234 82.0861 200.379 81.8186 200.535 80.9247C200.639 80.3526 200.707 79.7741 200.736 79.1929C200.759 78.5804 200.743 77.9669 200.687 77.3565C200.614 76.5533 200.483 75.7567 200.295 74.9729C199.992 73.6655 199.576 71.8498 198.583 69.6121C198.074 68.4592 198.039 68.6088 196.138 64.846C195.675 63.9098 195.3 62.9313 195.017 61.9236C194.861 61.3386 194.76 60.7695 194.76 60.7695C194.666 60.2417 194.628 59.8428 194.577 59.2797C194.515 58.6193 194.489 58.1085 194.48 57.8896C194.448 57.2596 194.33 54.7349 194.527 54.713C194.593 54.7057 194.647 54.9842 194.919 55.855C194.919 55.855 195.214 56.7939 195.555 57.6914C195.814 58.3524 196.107 58.9987 196.435 59.6275C196.945 60.6551 197.393 61.5575 198.098 62.8041C199.039 64.469 199.365 64.846 200.254 66.4781C200.614 67.1396 200.941 67.819 201.233 68.5139C201.331 68.7571 201.494 69.1512 201.673 69.6547C201.879 70.2244 202.057 70.8045 202.206 71.3925C202.421 72.2553 202.557 73.1362 202.613 74.0243C202.653 74.7376 202.643 75.4528 202.583 76.1647Z" fill="url(#paint10_linear_112_2)" fill-opacity="0.8"/>
<path d="M202.583 76.1647C202.569 76.3654 202.51 77.1595 202.398 77.7968C201.974 80.1914 200.468 82.2005 200.295 82.1153C200.234 82.0861 200.379 81.8186 200.535 80.9247C200.639 80.3526 200.707 79.7741 200.736 79.1929C200.759 78.5804 200.743 77.9669 200.687 77.3565C200.614 76.5533 200.483 75.7567 200.295 74.9729C199.992 73.6655 199.576 71.8498 198.583 69.6121C198.074 68.4592 198.039 68.6088 196.138 64.846C195.675 63.9098 195.3 62.9313 195.017 61.9236C194.861 61.3386 194.76 60.7695 194.76 60.7695C194.666 60.2417 194.628 59.8428 194.577 59.2797C194.515 58.6193 194.489 58.1085 194.48 57.8896C194.448 57.2596 194.33 54.7349 194.527 54.713C194.593 54.7057 194.647 54.9842 194.919 55.855C194.919 55.855 195.214 56.7939 195.555 57.6914C195.814 58.3524 196.107 58.9987 196.435 59.6275C196.945 60.6551 197.393 61.5575 198.098 62.8041C199.039 64.469 199.365 64.846 200.254 66.4781C200.614 67.1396 200.941 67.819 201.233 68.5139C201.331 68.7571 201.494 69.1512 201.673 69.6547C201.879 70.2244 202.057 70.8045 202.206 71.3925C202.421 72.2553 202.557 73.1362 202.613 74.0243C202.653 74.7376 202.643 75.4528 202.583 76.1647Z" fill="url(#paint11_linear_112_2)" fill-opacity="0.8"/>
<path d="M154.775 35.1229C154.423 35.9104 154.172 36.455 154.036 36.7493C153.635 37.6361 153.434 38.0789 153.299 38.6272C153.189 39.0675 153.152 39.4612 153.082 40.2327C152.977 41.3722 152.962 42.2344 152.955 42.3068C152.911 44.1944 152.973 46.2231 153.127 50.2179C153.133 50.3946 153.139 50.5381 153.141 50.7441C153.179 52.9519 152.817 54.1858 152.685 54.5991C152.643 54.7218 152.344 55.6564 152.193 55.6257C152.043 55.5951 152.22 54.6347 151.996 53.1469C151.927 52.6894 151.823 52.1951 151.823 52.1951C151.71 51.6542 151.661 51.5463 151.528 50.9686C151.419 50.489 151.421 50.4264 151.259 49.6194C151.116 48.919 151.063 48.7068 150.988 48.3426C150.825 47.5402 150.708 46.7289 150.637 45.9128C150.561 44.9966 150.547 44.0761 150.596 43.158C150.623 42.5165 150.682 41.2348 150.965 40.0794C151.082 39.6107 151.229 39.1505 151.407 38.702C151.479 38.5138 151.561 38.3299 151.654 38.1513C151.787 37.9011 151.935 37.6591 152.096 37.4264C152.293 37.1283 152.457 36.9076 152.514 36.8254C152.676 36.5997 153.057 36.0796 153.374 35.6982C154.004 34.9426 154.964 34.0448 155.119 34.1712C155.168 34.2129 155.118 34.3515 154.775 35.1229Z" fill="url(#paint12_linear_112_2)" fill-opacity="0.8"/>
<path d="M154.775 35.1229C154.423 35.9104 154.172 36.455 154.036 36.7493C153.635 37.6361 153.434 38.0789 153.299 38.6272C153.189 39.0675 153.152 39.4612 153.082 40.2327C152.977 41.3722 152.962 42.2344 152.955 42.3068C152.911 44.1944 152.973 46.2231 153.127 50.2179C153.133 50.3946 153.139 50.5381 153.141 50.7441C153.179 52.9519 152.817 54.1858 152.685 54.5991C152.643 54.7218 152.344 55.6564 152.193 55.6257C152.043 55.5951 152.22 54.6347 151.996 53.1469C151.927 52.6894 151.823 52.1951 151.823 52.1951C151.71 51.6542 151.661 51.5463 151.528 50.9686C151.419 50.489 151.421 50.4264 151.259 49.6194C151.116 48.919 151.063 48.7068 150.988 48.3426C150.825 47.5402 150.708 46.7289 150.637 45.9128C150.561 44.9966 150.547 44.0761 150.596 43.158C150.623 42.5165 150.682 41.2348 150.965 40.0794C151.082 39.6107 151.229 39.1505 151.407 38.702C151.479 38.5138 151.561 38.3299 151.654 38.1513C151.787 37.9011 151.935 37.6591 152.096 37.4264C152.293 37.1283 152.457 36.9076 152.514 36.8254C152.676 36.5997 153.057 36.0796 153.374 35.6982C154.004 34.9426 154.964 34.0448 155.119 34.1712C155.168 34.2129 155.118 34.3515 154.775 35.1229Z" fill="url(#paint13_linear_112_2)" fill-opacity="0.8"/>
<path d="M163.692 27.2906C162.726 28.2299 162.172 29.0594 161.072 30.7171C160.163 32.0748 159.71 32.7599 159.286 33.7745C158.946 34.5929 158.776 35.2335 158.444 36.49C158.098 37.8021 157.898 38.8353 157.742 39.661C157.518 40.8361 157.527 40.9842 157.179 42.8703C156.948 44.1269 156.796 44.8563 156.401 45.7586C156.194 46.254 155.922 46.7172 155.592 47.1349C155.044 47.82 154.316 48.3927 154.23 48.3112C154.214 48.2964 154.218 48.2273 154.276 48.1113C154.333 47.9952 154.416 47.8385 154.522 47.6064C154.705 47.182 154.857 46.7438 154.976 46.2956C155.085 45.866 155.161 45.4281 155.203 44.9859C155.264 44.462 155.296 43.9349 155.3 43.4072C155.314 42.3531 155.439 41.3496 155.689 39.3426C155.838 38.1391 155.906 37.5355 156.046 36.8566C156.223 36.0033 156.45 35.1619 156.726 34.3374C156.99 33.5068 157.315 32.6985 157.698 31.9193C158.394 30.4135 159.412 29.0924 160.675 28.0571C161.295 27.5115 162.027 26.8684 163.106 26.3105C164.185 25.7526 165.531 25.323 165.634 25.5378C165.725 25.7193 164.84 26.176 163.692 27.2906Z" fill="url(#paint14_linear_112_2)" fill-opacity="0.8"/>
<path d="M163.692 27.2906C162.726 28.2299 162.172 29.0594 161.072 30.7171C160.163 32.0748 159.71 32.7599 159.286 33.7745C158.946 34.5929 158.776 35.2335 158.444 36.49C158.098 37.8021 157.898 38.8353 157.742 39.661C157.518 40.8361 157.527 40.9842 157.179 42.8703C156.948 44.1269 156.796 44.8563 156.401 45.7586C156.194 46.254 155.922 46.7172 155.592 47.1349C155.044 47.82 154.316 48.3927 154.23 48.3112C154.214 48.2964 154.218 48.2273 154.276 48.1113C154.333 47.9952 154.416 47.8385 154.522 47.6064C154.705 47.182 154.857 46.7438 154.976 46.2956C155.085 45.866 155.161 45.4281 155.203 44.9859C155.264 44.462 155.296 43.9349 155.3 43.4072C155.314 42.3531 155.439 41.3496 155.689 39.3426C155.838 38.1391 155.906 37.5355 156.046 36.8566C156.223 36.0033 156.45 35.1619 156.726 34.3374C156.99 33.5068 157.315 32.6985 157.698 31.9193C158.394 30.4135 159.412 29.0924 160.675 28.0571C161.295 27.5115 162.027 26.8684 163.106 26.3105C164.185 25.7526 165.531 25.323 165.634 25.5378C165.725 25.7193 164.84 26.176 163.692 27.2906Z" fill="url(#paint15_linear_112_2)" fill-opacity="0.8"/>
<path d="M191.99 79.1413C191.99 79.1413 191.94 79.521 191.74 81.4246C191.626 82.4817 191.587 83.3968 191.501 85.2219C191.408 87.2272 191.462 87.3044 191.364 89.5227C191.32 90.5223 191.273 91.6051 191.16 92.9893C191.091 93.8468 190.977 95.2457 190.784 96.5564C190.577 97.9467 190.257 100.084 189.247 102.589C188.39 104.715 187.194 106.695 185.704 108.455C184.609 109.742 183.35 110.885 181.956 111.856C181.055 112.474 180.097 113.01 179.094 113.456C178.408 113.754 177.704 114.011 176.986 114.226C175.781 114.613 175.705 114.553 175.693 114.526C175.631 114.404 176.319 113.993 177.156 113.393C177.156 113.393 177.811 112.927 179.535 111.493C181.713 109.689 183.246 106.793 183.792 105.759C184.859 103.746 185.348 102.157 185.972 100.125C186.593 98.0788 187.083 95.9973 187.441 93.8921C187.906 91.3393 188.235 88.6665 188.362 87.6584C188.531 86.2827 188.705 84.7185 189.213 82.7586C189.213 82.7586 189.504 81.6402 190.406 79.6582C190.64 79.1743 190.925 78.7161 191.258 78.2912C191.549 77.9139 191.875 77.4925 192.041 77.5562C192.208 77.6199 192.117 78.1785 191.99 79.1413Z" fill="url(#paint16_linear_112_2)" fill-opacity="0.8"/>
<path d="M191.99 79.1413C191.99 79.1413 191.94 79.521 191.74 81.4246C191.626 82.4817 191.587 83.3968 191.501 85.2219C191.408 87.2272 191.462 87.3044 191.364 89.5227C191.32 90.5223 191.273 91.6051 191.16 92.9893C191.091 93.8468 190.977 95.2457 190.784 96.5564C190.577 97.9467 190.257 100.084 189.247 102.589C188.39 104.715 187.194 106.695 185.704 108.455C184.609 109.742 183.35 110.885 181.956 111.856C181.055 112.474 180.097 113.01 179.094 113.456C178.408 113.754 177.704 114.011 176.986 114.226C175.781 114.613 175.705 114.553 175.693 114.526C175.631 114.404 176.319 113.993 177.156 113.393C177.156 113.393 177.811 112.927 179.535 111.493C181.713 109.689 183.246 106.793 183.792 105.759C184.859 103.746 185.348 102.157 185.972 100.125C186.593 98.0788 187.083 95.9973 187.441 93.8921C187.906 91.3393 188.235 88.6665 188.362 87.6584C188.531 86.2827 188.705 84.7185 189.213 82.7586C189.213 82.7586 189.504 81.6402 190.406 79.6582C190.64 79.1743 190.925 78.7161 191.258 78.2912C191.549 77.9139 191.875 77.4925 192.041 77.5562C192.208 77.6199 192.117 78.1785 191.99 79.1413Z" fill="url(#paint17_linear_112_2)" fill-opacity="0.8"/>
<path d="M198.07 86.5601C198.07 88.0052 198.07 88.9101 197.871 90.1443C197.707 91.1383 197.463 92.1172 197.139 93.0712C196.729 94.3639 196.415 95.3493 195.676 96.5225C195.271 97.1642 194.805 97.7647 194.283 98.3153C193.213 99.4714 191.862 100.531 191.694 100.373C191.526 100.214 192.516 99.275 193.419 97.3847C193.841 96.4892 194.174 95.5542 194.412 94.5932C194.986 92.4676 195.036 90.7797 195.076 89.0516C195.117 87.3235 195.025 86.1345 194.845 83.7747C194.675 81.5697 194.577 80.2929 194.297 78.4989C193.974 76.4367 193.688 75.4671 193.566 73.3866C193.515 72.4928 193.521 71.5967 193.582 70.7036C193.657 69.0926 193.802 68.5084 194.013 67.9999C194.226 67.4876 194.517 67.0116 194.876 66.5889C194.834 67.4962 194.856 68.4054 194.942 69.3097C195.052 70.3366 195.229 71.3552 195.474 72.3585C195.819 73.8622 195.962 74.0952 196.668 76.6062C197.172 78.405 197.428 79.3245 197.597 80.3233C197.784 81.438 197.854 82.3405 197.93 83.31C197.983 83.9832 198.07 85.0966 198.07 86.5601Z" fill="url(#paint18_linear_112_2)" fill-opacity="0.8"/>
<path d="M198.07 86.5601C198.07 88.0052 198.07 88.9101 197.871 90.1443C197.707 91.1383 197.463 92.1172 197.139 93.0712C196.729 94.3639 196.415 95.3493 195.676 96.5225C195.271 97.1642 194.805 97.7647 194.283 98.3153C193.213 99.4714 191.862 100.531 191.694 100.373C191.526 100.214 192.516 99.275 193.419 97.3847C193.841 96.4892 194.174 95.5542 194.412 94.5932C194.986 92.4676 195.036 90.7797 195.076 89.0516C195.117 87.3235 195.025 86.1345 194.845 83.7747C194.675 81.5697 194.577 80.2929 194.297 78.4989C193.974 76.4367 193.688 75.4671 193.566 73.3866C193.515 72.4928 193.521 71.5967 193.582 70.7036C193.657 69.0926 193.802 68.5084 194.013 67.9999C194.226 67.4876 194.517 67.0116 194.876 66.5889C194.834 67.4962 194.856 68.4054 194.942 69.3097C195.052 70.3366 195.229 71.3552 195.474 72.3585C195.819 73.8622 195.962 74.0952 196.668 76.6062C197.172 78.405 197.428 79.3245 197.597 80.3233C197.784 81.438 197.854 82.3405 197.93 83.31C197.983 83.9832 198.07 85.0966 198.07 86.5601Z" fill="url(#paint19_linear_112_2)" fill-opacity="0.8"/>
<path d="M184.491 92.2196C183.98 93.8937 184.115 93.7495 183.536 95.7326C183.245 96.7235 182.736 98.4448 181.924 100.578C181.052 102.87 180.234 104.567 179.96 105.128C179.087 106.917 178.221 108.689 176.688 110.814C175.938 111.845 175.131 112.836 174.272 113.781C173.615 114.533 172.908 115.242 172.157 115.903C171.187 116.737 170.142 117.481 169.035 118.127C167.73 118.896 166.347 119.526 164.907 120.007C163.751 120.419 162.551 120.701 161.33 120.848C159.902 121.009 158.81 120.931 157.655 120.848C157.154 120.812 155.591 120.699 155.591 120.551C155.591 120.384 157.593 120.567 159.819 120.007C162.596 119.308 164.473 117.768 166.264 116.298C168.106 114.785 169.269 113.401 170.191 112.293C170.596 111.809 171.794 110.333 174.369 106.161C176.751 102.296 179.7 97.0954 180.679 94.8204C180.923 94.2437 181.204 93.6825 181.519 93.1402C181.905 92.4715 182.236 92.0245 182.894 91.1293C183.432 90.3814 184.016 89.6658 184.641 88.9864C185.251 88.3286 185.56 88.0003 185.68 88.0633C185.937 88.1978 185.28 89.6429 184.491 92.2196Z" fill="url(#paint20_linear_112_2)" fill-opacity="0.8"/>
<path d="M184.491 92.2196C183.98 93.8937 184.115 93.7495 183.536 95.7326C183.245 96.7235 182.736 98.4448 181.924 100.578C181.052 102.87 180.234 104.567 179.96 105.128C179.087 106.917 178.221 108.689 176.688 110.814C175.938 111.845 175.131 112.836 174.272 113.781C173.615 114.533 172.908 115.242 172.157 115.903C171.187 116.737 170.142 117.481 169.035 118.127C167.73 118.896 166.347 119.526 164.907 120.007C163.751 120.419 162.551 120.701 161.33 120.848C159.902 121.009 158.81 120.931 157.655 120.848C157.154 120.812 155.591 120.699 155.591 120.551C155.591 120.384 157.593 120.567 159.819 120.007C162.596 119.308 164.473 117.768 166.264 116.298C168.106 114.785 169.269 113.401 170.191 112.293C170.596 111.809 171.794 110.333 174.369 106.161C176.751 102.296 179.7 97.0954 180.679 94.8204C180.923 94.2437 181.204 93.6825 181.519 93.1402C181.905 92.4715 182.236 92.0245 182.894 91.1293C183.432 90.3814 184.016 89.6658 184.641 88.9864C185.251 88.3286 185.56 88.0003 185.68 88.0633C185.937 88.1978 185.28 89.6429 184.491 92.2196Z" fill="url(#paint21_linear_112_2)" fill-opacity="0.8"/>
<path d="M140.976 64.3046L138.396 59.026H136.065V58.021H137.95L137.008 55.708H136.351L136.065 56.6268L135.16 56.6009L134.63 56.1859V54.9924H133.411V56.4753L133.685 58.1589L133.213 58.1466L131.675 56.261L131.204 56.2746L131.196 56.6132H130.25L126.36 53.0773L131.303 48.3184L139.339 53.7473L140.976 64.3046Z" fill="url(#paint22_linear_112_2)" fill-opacity="0.8"/>
<path d="M140.976 64.3046L138.396 59.026H136.065V58.021H137.95L137.008 55.708H136.351L136.065 56.6268L135.16 56.6009L134.63 56.1859V54.9924H133.411V56.4753L133.685 58.1589L133.213 58.1466L131.675 56.261L131.204 56.2746L131.196 56.6132H130.25L126.36 53.0773L131.303 48.3184L139.339 53.7473L140.976 64.3046Z" fill="url(#paint23_linear_112_2)" fill-opacity="0.8"/>
<path d="M177.961 94.4869C177.887 94.3832 177.525 94.5202 177.212 94.6387C176.734 94.8139 176.282 95.0529 175.868 95.3495C173.334 97.313 170.644 100.222 170.644 100.222C169.199 101.787 168.098 102.883 166.655 104.319C165.336 105.632 164.392 106.531 163.33 107.476C162.677 108.057 162.41 108.273 161.131 109.357C157.73 112.247 158.025 112.072 157.14 112.783C155.446 114.171 153.619 115.386 151.687 116.41C150.267 117.183 148.775 117.813 147.232 118.29C145.609 118.786 143.936 119.101 142.245 119.23C141.227 119.305 140.167 119.312 139.19 119.295L140.345 116.6L132.754 117.487L137.309 123.682L138.47 120.967C139.484 121.29 140.525 121.516 141.581 121.642C143.792 121.945 146.035 121.899 148.232 121.508C150.631 121.071 152.359 120.314 153.751 119.695C155.95 118.708 157.498 117.698 158.738 116.874C160.3 115.837 161.789 114.692 163.195 113.448C165.031 111.809 166.722 110.011 168.248 108.074C168.813 107.36 169.512 106.366 170.908 104.381C172.619 101.954 173.466 100.743 174.034 99.8145C174.479 99.0458 174.969 98.304 175.5 97.5931C176.355 96.4664 176.897 95.8456 176.897 95.8456C177.584 95.0669 178.055 94.6239 177.961 94.4869Z" fill="url(#paint24_linear_112_2)" fill-opacity="0.8"/>
<path d="M177.961 94.4869C177.887 94.3832 177.525 94.5202 177.212 94.6387C176.734 94.8139 176.282 95.0529 175.868 95.3495C173.334 97.313 170.644 100.222 170.644 100.222C169.199 101.787 168.098 102.883 166.655 104.319C165.336 105.632 164.392 106.531 163.33 107.476C162.677 108.057 162.41 108.273 161.131 109.357C157.73 112.247 158.025 112.072 157.14 112.783C155.446 114.171 153.619 115.386 151.687 116.41C150.267 117.183 148.775 117.813 147.232 118.29C145.609 118.786 143.936 119.101 142.245 119.23C141.227 119.305 140.167 119.312 139.19 119.295L140.345 116.6L132.754 117.487L137.309 123.682L138.47 120.967C139.484 121.29 140.525 121.516 141.581 121.642C143.792 121.945 146.035 121.899 148.232 121.508C150.631 121.071 152.359 120.314 153.751 119.695C155.95 118.708 157.498 117.698 158.738 116.874C160.3 115.837 161.789 114.692 163.195 113.448C165.031 111.809 166.722 110.011 168.248 108.074C168.813 107.36 169.512 106.366 170.908 104.381C172.619 101.954 173.466 100.743 174.034 99.8145C174.479 99.0458 174.969 98.304 175.5 97.5931C176.355 96.4664 176.897 95.8456 176.897 95.8456C177.584 95.0669 178.055 94.6239 177.961 94.4869Z" fill="url(#paint25_linear_112_2)" fill-opacity="0.8"/>
<path d="M195.786 25.1981L190.233 20L189.499 23.0222C189.296 22.9508 189.072 22.8771 188.824 22.8094C188.181 22.6445 187.523 22.5453 186.859 22.5132C186.227 22.4626 185.592 22.4489 184.958 22.4721C183.916 22.5165 182.88 22.6626 181.866 22.9085C180.919 23.1007 179.993 23.3871 179.103 23.7632C178.385 24.0751 177.86 24.387 176.806 25.0132C175.95 25.5257 175.35 25.8811 174.677 26.3623C173.484 27.2157 172.744 27.9701 171.548 29.1922C171.214 29.5319 170.214 30.5643 169.018 32.0198C168.161 33.0679 167.513 33.954 167.121 34.4871C165.805 36.2931 165.672 36.6812 164.858 37.4161C164.064 38.1306 163.29 38.573 163.361 38.6988C163.432 38.8245 164.258 38.4896 164.392 38.4352C165.329 38.0511 166.197 37.5178 166.96 36.8564C168.002 35.98 168.716 35.3127 169.322 34.7506C170.405 33.7509 171.236 33.0038 172.917 31.5265C174.465 30.1678 174.819 29.8668 175.248 29.5525C175.677 29.2382 175.51 29.3869 177.644 27.9737C178.714 27.2653 179.062 27.0259 179.708 26.6911C180.319 26.3731 180.833 26.1616 181.305 25.9658C181.957 25.6889 182.624 25.4468 183.302 25.2404C184.106 24.9987 184.733 24.8778 184.9 24.8451C185.56 24.7182 186.339 24.6203 188.495 24.6142H189.117L188.457 27.3451L195.786 25.1981Z" fill="url(#paint26_linear_112_2)" fill-opacity="0.8"/>
<path d="M195.786 25.1981L190.233 20L189.499 23.0222C189.296 22.9508 189.072 22.8771 188.824 22.8094C188.181 22.6445 187.523 22.5453 186.859 22.5132C186.227 22.4626 185.592 22.4489 184.958 22.4721C183.916 22.5165 182.88 22.6626 181.866 22.9085C180.919 23.1007 179.993 23.3871 179.103 23.7632C178.385 24.0751 177.86 24.387 176.806 25.0132C175.95 25.5257 175.35 25.8811 174.677 26.3623C173.484 27.2157 172.744 27.9701 171.548 29.1922C171.214 29.5319 170.214 30.5643 169.018 32.0198C168.161 33.0679 167.513 33.954 167.121 34.4871C165.805 36.2931 165.672 36.6812 164.858 37.4161C164.064 38.1306 163.29 38.573 163.361 38.6988C163.432 38.8245 164.258 38.4896 164.392 38.4352C165.329 38.0511 166.197 37.5178 166.96 36.8564C168.002 35.98 168.716 35.3127 169.322 34.7506C170.405 33.7509 171.236 33.0038 172.917 31.5265C174.465 30.1678 174.819 29.8668 175.248 29.5525C175.677 29.2382 175.51 29.3869 177.644 27.9737C178.714 27.2653 179.062 27.0259 179.708 26.6911C180.319 26.3731 180.833 26.1616 181.305 25.9658C181.957 25.6889 182.624 25.4468 183.302 25.2404C184.106 24.9987 184.733 24.8778 184.9 24.8451C185.56 24.7182 186.339 24.6203 188.495 24.6142H189.117L188.457 27.3451L195.786 25.1981Z" fill="url(#paint27_linear_112_2)" fill-opacity="0.8"/>
<path d="M161.53 94.0071L157.56 96.3194L156.062 97.1911L150.793 95.9509L145.583 97.1762H145.582L145.515 97.1836L144.019 96.312L140.063 94.0095L147.024 94.7704L147.026 94.7691H147.028L149.191 93.6571L150.793 90.3398L152.396 93.6634L154.546 94.7704H154.547L161.53 94.0071Z" fill="url(#paint28_linear_112_2)" fill-opacity="0.8"/>
<path d="M161.53 94.0071L157.56 96.3194L156.062 97.1911L150.793 95.9509L145.583 97.1762H145.582L145.515 97.1836L144.019 96.312L140.063 94.0095L147.024 94.7704L147.026 94.7691H147.028L149.191 93.6571L150.793 90.3398L152.396 93.6634L154.546 94.7704H154.547L161.53 94.0071Z" fill="url(#paint29_linear_112_2)" fill-opacity="0.8"/>
<g filter="url(#filter0_f_112_2)">
<path d="M218.98 68H223.57V76.46H223.72L230.68 68H235.96L227.8 77.81L236.29 89H230.62L223.72 79.61H223.57V89H218.98V68ZM245.99 68H250.58V89H245.99V68ZM261.544 68H266.494L274.204 80.78L274.564 82.49H274.774V68H279.364V89H274.414L266.704 76.22L266.344 74.51H266.134V89H261.544V68ZM300.572 89.3C298.532 89.3 296.682 88.84 295.022 87.92C293.382 86.98 292.082 85.69 291.122 84.05C290.182 82.41 289.712 80.56 289.712 78.5C289.712 76.42 290.172 74.56 291.092 72.92C292.032 71.28 293.312 70 294.932 69.08C296.572 68.16 298.422 67.7 300.482 67.7C302.882 67.7 304.942 68.29 306.662 69.47C308.382 70.65 309.522 72.31 310.082 74.45L309.842 74.84L305.732 75.41C305.372 74.19 304.752 73.26 303.872 72.62C302.992 71.98 301.862 71.66 300.482 71.66C299.282 71.66 298.212 71.95 297.272 72.53C296.352 73.11 295.632 73.92 295.112 74.96C294.592 76 294.332 77.18 294.332 78.5C294.332 79.84 294.582 81.02 295.082 82.04C295.602 83.06 296.332 83.86 297.272 84.44C298.232 85 299.352 85.28 300.632 85.28C302.112 85.28 303.292 84.91 304.172 84.17C305.072 83.43 305.662 82.37 305.942 80.99H298.622V77.45H310.292V79.16C310.292 81.14 309.892 82.9 309.092 84.44C308.312 85.96 307.182 87.15 305.702 88.01C304.242 88.87 302.532 89.3 300.572 89.3Z" fill="#EB3846"/>
<path d="M20.36 68H25.22L28.46 80.39L28.85 83.18H29.03L29.45 80.39L33.02 68H37.34L40.94 80.39L41.33 83.18H41.51L41.93 80.39L45.14 68H50L43.91 89H39.2L35.18 74.15L31.16 89H26.45L20.36 68ZM59.3316 68H73.2516V71.9H63.9216V76.55H72.4416V80.45H63.9216V85.1H73.5816V89H59.3316V68ZM84.1441 68H93.2641C94.6041 68 95.7841 68.23 96.8041 68.69C97.8241 69.15 98.6141 69.79 99.1741 70.61C99.7341 71.41 100.014 72.31 100.014 73.31C100.014 74.37 99.8141 75.24 99.4141 75.92C99.0141 76.58 98.4141 77.16 97.6141 77.66V77.87C98.6741 78.27 99.5241 78.89 100.164 79.73C100.824 80.55 101.154 81.57 101.154 82.79C101.154 84.01 100.844 85.09 100.224 86.03C99.6241 86.97 98.7441 87.7 97.5841 88.22C96.4441 88.74 95.0841 89 93.5041 89H84.1441V68ZM93.1741 76.37C93.9941 76.37 94.6241 76.18 95.0641 75.8C95.5241 75.42 95.7541 74.87 95.7541 74.15C95.7541 73.41 95.5241 72.85 95.0641 72.47C94.6241 72.09 93.9941 71.9 93.1741 71.9H88.7341V76.37H93.1741ZM93.9241 85.1C94.7441 85.1 95.4041 84.9 95.9041 84.5C96.4041 84.08 96.6541 83.47 96.6541 82.67C96.6541 81.89 96.3941 81.3 95.8741 80.9C95.3741 80.48 94.7241 80.27 93.9241 80.27H88.7341V85.1H93.9241Z" fill="#EB3846"/>
<path d="M161.53 80.1711L158.016 83.3546L158.012 80.7008L154.189 85.4639L155.742 85.4151L150.811 89.8828L146.001 85.525L147.546 85.5066L143.609 81.039L143.586 83.3351L140.063 80.1454L141.285 77.0938H160.298L161.53 80.1711Z" fill="#EB3846"/>
<path d="M175.232 53.0769L171.342 56.6126H170.396L170.387 56.2739L169.916 56.2616L168.378 58.1458L167.907 58.1594L168.18 56.4759V54.9919H166.96V56.1853L166.431 56.6015L165.526 56.6261L165.241 55.7087H164.583L163.642 58.0202H165.526V59.0264H163.195L160.616 64.3046L162.253 53.7481L170.289 48.3184L175.232 53.0769Z" fill="#EB3846"/>
<path d="M175.232 53.0769L171.342 56.6126H170.396L170.387 56.2739L169.916 56.2616L168.378 58.1458L167.907 58.1594L168.18 56.4759V54.9919H166.96V56.1853L166.431 56.6015L165.526 56.6261L165.241 55.7087H164.583L163.642 58.0202H165.526V59.0264H163.195L160.616 64.3046L162.253 53.7481L170.289 48.3184L175.232 53.0769Z" fill="#EB3846"/>
<path d="M178.429 22.7928C178.451 22.9256 177.1 23.0861 175.598 23.7113C174.36 24.2291 173.563 24.8338 172.364 25.7487C171.327 26.5458 170.357 27.4241 169.466 28.375C168.817 29.0649 168.21 29.7902 167.646 30.5475C166.961 31.466 166.884 31.7038 165.557 33.7664C164.958 34.6982 165.119 34.4242 163.873 36.3276C162.182 38.9044 162.182 38.966 161.783 39.4789C160.609 41.0021 159.059 42.5398 158.819 42.3684C158.673 42.2658 159.074 41.5935 159.678 40.2997C160.596 38.3347 160.562 37.9775 161.412 35.9317C162.14 34.178 162.805 32.5788 164.012 30.7092C164.912 29.2528 165.996 27.9119 167.238 26.7178C168.395 25.6183 169.695 24.4065 171.763 23.6148C172.715 23.2568 173.708 23.0089 174.719 22.8761C175.215 22.8109 175.92 22.7904 177.319 22.7554C178.181 22.7289 178.419 22.7385 178.429 22.7928Z" fill="#EB3846"/>
<path d="M178.429 22.7928C178.451 22.9256 177.1 23.0861 175.598 23.7113C174.36 24.2291 173.563 24.8338 172.364 25.7487C171.327 26.5458 170.357 27.4241 169.466 28.375C168.817 29.0649 168.21 29.7902 167.646 30.5475C166.961 31.466 166.884 31.7038 165.557 33.7664C164.958 34.6982 165.119 34.4242 163.873 36.3276C162.182 38.9044 162.182 38.966 161.783 39.4789C160.609 41.0021 159.059 42.5398 158.819 42.3684C158.673 42.2658 159.074 41.5935 159.678 40.2997C160.596 38.3347 160.562 37.9775 161.412 35.9317C162.14 34.178 162.805 32.5788 164.012 30.7092C164.912 29.2528 165.996 27.9119 167.238 26.7178C168.395 25.6183 169.695 24.4065 171.763 23.6148C172.715 23.2568 173.708 23.0089 174.719 22.8761C175.215 22.8109 175.92 22.7904 177.319 22.7554C178.181 22.7289 178.419 22.7385 178.429 22.7928Z" fill="#EB3846"/>
<path d="M193.383 45.1207C193.273 45.1318 193.276 44.3245 192.711 43.402C192.456 43.0057 192.151 42.6437 191.805 42.3248C191.41 41.9313 190.983 41.5706 190.53 41.2463C189.006 40.1158 188.02 39.4262 188.02 39.4262C185.943 37.9911 186.084 38.1161 185.872 37.9403C184.975 37.2018 184.186 36.3402 183.529 35.3809C182.789 34.3062 182.604 33.6697 182.555 33.1237C182.502 32.5294 182.598 31.8979 182.757 31.8756C182.916 31.8533 182.991 32.4773 183.562 33.2908C183.826 33.6702 184.142 34.0103 184.501 34.3012C184.871 34.6033 185.233 34.7841 185.944 35.1444C186.417 35.3847 186.51 35.4032 186.884 35.6162C187.258 35.8292 187.451 35.9753 187.824 36.2229C188.429 36.6266 188.709 36.769 189.132 37.0315C190.007 37.5524 190.818 38.1759 191.547 38.8888C192.156 39.4967 192.604 39.945 192.957 40.7089C193.309 41.4729 193.377 42.1576 193.46 43.0999C193.54 44.1165 193.503 45.1083 193.383 45.1207Z" fill="#EB3846"/>
<path d="M201.141 61.0341C200.979 61.7429 200.647 62.516 200.479 62.4764C200.311 62.4369 200.479 61.696 200.284 60.6315C200.238 60.3783 200.112 59.7732 199.628 58.7655C198.269 55.9253 195.847 52.9183 195.847 52.9183C194.255 50.9424 192.912 49.2691 191.915 48.1293C191.466 47.6206 191.077 47.0626 190.755 46.4659C190.536 46.0618 190.351 45.6405 190.201 45.2063C189.98 44.6433 189.861 44.046 189.847 43.4416C189.847 43.139 189.847 42.4302 190.05 42.3833C190.297 42.3265 190.595 43.2749 191.31 44.3999C191.585 44.8333 191.896 45.2507 192.973 46.4153C194.238 47.7835 194.816 48.2985 196.555 50.0446C198.324 51.8241 199.034 52.6071 199.732 53.8259C199.973 54.2506 200.192 54.688 200.387 55.1362C200.629 55.74 200.814 56.3645 200.942 57.0021C201.119 57.7922 201.223 58.5971 201.252 59.4065C201.29 59.9515 201.252 60.4992 201.141 61.0341Z" fill="#EB3846"/>
<path d="M201.141 61.0341C200.979 61.7429 200.647 62.516 200.479 62.4764C200.311 62.4369 200.479 61.696 200.284 60.6315C200.238 60.3783 200.112 59.7732 199.628 58.7655C198.269 55.9253 195.847 52.9183 195.847 52.9183C194.255 50.9424 192.912 49.2691 191.915 48.1293C191.466 47.6206 191.077 47.0626 190.755 46.4659C190.536 46.0618 190.351 45.6405 190.201 45.2063C189.98 44.6433 189.861 44.046 189.847 43.4416C189.847 43.139 189.847 42.4302 190.05 42.3833C190.297 42.3265 190.595 43.2749 191.31 44.3999C191.585 44.8333 191.896 45.2507 192.973 46.4153C194.238 47.7835 194.816 48.2985 196.555 50.0446C198.324 51.8241 199.034 52.6071 199.732 53.8259C199.973 54.2506 200.192 54.688 200.387 55.1362C200.629 55.74 200.814 56.3645 200.942 57.0021C201.119 57.7922 201.223 58.5971 201.252 59.4065C201.29 59.9515 201.252 60.4992 201.141 61.0341Z" fill="#EB3846"/>
<path d="M202.583 76.1647C202.569 76.3654 202.51 77.1595 202.398 77.7968C201.974 80.1914 200.468 82.2005 200.295 82.1153C200.234 82.0861 200.379 81.8186 200.535 80.9247C200.639 80.3526 200.707 79.7741 200.736 79.1929C200.759 78.5804 200.743 77.9669 200.687 77.3565C200.614 76.5533 200.483 75.7567 200.295 74.9729C199.992 73.6655 199.576 71.8498 198.583 69.6121C198.074 68.4592 198.039 68.6088 196.138 64.846C195.675 63.9098 195.3 62.9313 195.017 61.9236C194.861 61.3386 194.76 60.7695 194.76 60.7695C194.666 60.2417 194.628 59.8428 194.577 59.2797C194.515 58.6193 194.489 58.1085 194.48 57.8896C194.448 57.2596 194.33 54.7349 194.527 54.713C194.593 54.7057 194.647 54.9842 194.919 55.855C194.919 55.855 195.214 56.7939 195.555 57.6914C195.814 58.3524 196.107 58.9987 196.435 59.6275C196.945 60.6551 197.393 61.5575 198.098 62.8041C199.039 64.469 199.365 64.846 200.254 66.4781C200.614 67.1396 200.941 67.819 201.233 68.5139C201.331 68.7571 201.494 69.1512 201.673 69.6547C201.879 70.2244 202.057 70.8045 202.206 71.3925C202.421 72.2553 202.557 73.1362 202.613 74.0243C202.653 74.7376 202.643 75.4528 202.583 76.1647Z" fill="#EB3846"/>
<path d="M202.583 76.1647C202.569 76.3654 202.51 77.1595 202.398 77.7968C201.974 80.1914 200.468 82.2005 200.295 82.1153C200.234 82.0861 200.379 81.8186 200.535 80.9247C200.639 80.3526 200.707 79.7741 200.736 79.1929C200.759 78.5804 200.743 77.9669 200.687 77.3565C200.614 76.5533 200.483 75.7567 200.295 74.9729C199.992 73.6655 199.576 71.8498 198.583 69.6121C198.074 68.4592 198.039 68.6088 196.138 64.846C195.675 63.9098 195.3 62.9313 195.017 61.9236C194.861 61.3386 194.76 60.7695 194.76 60.7695C194.666 60.2417 194.628 59.8428 194.577 59.2797C194.515 58.6193 194.489 58.1085 194.48 57.8896C194.448 57.2596 194.33 54.7349 194.527 54.713C194.593 54.7057 194.647 54.9842 194.919 55.855C194.919 55.855 195.214 56.7939 195.555 57.6914C195.814 58.3524 196.107 58.9987 196.435 59.6275C196.945 60.6551 197.393 61.5575 198.098 62.8041C199.039 64.469 199.365 64.846 200.254 66.4781C200.614 67.1396 200.941 67.819 201.233 68.5139C201.331 68.7571 201.494 69.1512 201.673 69.6547C201.879 70.2244 202.057 70.8045 202.206 71.3925C202.421 72.2553 202.557 73.1362 202.613 74.0243C202.653 74.7376 202.643 75.4528 202.583 76.1647Z" fill="#EB3846"/>
<path d="M154.775 35.1229C154.423 35.9104 154.172 36.455 154.036 36.7493C153.635 37.6361 153.434 38.0789 153.299 38.6272C153.189 39.0675 153.152 39.4612 153.082 40.2327C152.977 41.3722 152.962 42.2344 152.955 42.3068C152.911 44.1944 152.973 46.2231 153.127 50.2179C153.133 50.3946 153.139 50.5381 153.141 50.7441C153.179 52.9519 152.817 54.1858 152.685 54.5991C152.643 54.7218 152.344 55.6564 152.193 55.6257C152.043 55.5951 152.22 54.6347 151.996 53.1469C151.927 52.6894 151.823 52.1951 151.823 52.1951C151.71 51.6542 151.661 51.5463 151.528 50.9686C151.419 50.489 151.421 50.4264 151.259 49.6194C151.116 48.919 151.063 48.7068 150.988 48.3426C150.825 47.5402 150.708 46.7289 150.637 45.9128C150.561 44.9966 150.547 44.0761 150.596 43.158C150.623 42.5165 150.682 41.2348 150.965 40.0794C151.082 39.6107 151.229 39.1505 151.407 38.702C151.479 38.5138 151.561 38.3299 151.654 38.1513C151.787 37.9011 151.935 37.6591 152.096 37.4264C152.293 37.1283 152.457 36.9076 152.514 36.8254C152.676 36.5997 153.057 36.0796 153.374 35.6982C154.004 34.9426 154.964 34.0448 155.119 34.1712C155.168 34.2129 155.118 34.3515 154.775 35.1229Z" fill="#EB3846"/>
<path d="M154.775 35.1229C154.423 35.9104 154.172 36.455 154.036 36.7493C153.635 37.6361 153.434 38.0789 153.299 38.6272C153.189 39.0675 153.152 39.4612 153.082 40.2327C152.977 41.3722 152.962 42.2344 152.955 42.3068C152.911 44.1944 152.973 46.2231 153.127 50.2179C153.133 50.3946 153.139 50.5381 153.141 50.7441C153.179 52.9519 152.817 54.1858 152.685 54.5991C152.643 54.7218 152.344 55.6564 152.193 55.6257C152.043 55.5951 152.22 54.6347 151.996 53.1469C151.927 52.6894 151.823 52.1951 151.823 52.1951C151.71 51.6542 151.661 51.5463 151.528 50.9686C151.419 50.489 151.421 50.4264 151.259 49.6194C151.116 48.919 151.063 48.7068 150.988 48.3426C150.825 47.5402 150.708 46.7289 150.637 45.9128C150.561 44.9966 150.547 44.0761 150.596 43.158C150.623 42.5165 150.682 41.2348 150.965 40.0794C151.082 39.6107 151.229 39.1505 151.407 38.702C151.479 38.5138 151.561 38.3299 151.654 38.1513C151.787 37.9011 151.935 37.6591 152.096 37.4264C152.293 37.1283 152.457 36.9076 152.514 36.8254C152.676 36.5997 153.057 36.0796 153.374 35.6982C154.004 34.9426 154.964 34.0448 155.119 34.1712C155.168 34.2129 155.118 34.3515 154.775 35.1229Z" fill="#EB3846"/>
<path d="M163.692 27.2906C162.726 28.2299 162.172 29.0594 161.072 30.7171C160.163 32.0748 159.71 32.7599 159.286 33.7745C158.946 34.5929 158.776 35.2335 158.444 36.49C158.098 37.8021 157.898 38.8353 157.742 39.661C157.518 40.8361 157.527 40.9842 157.179 42.8703C156.948 44.1269 156.796 44.8563 156.401 45.7586C156.194 46.254 155.922 46.7172 155.592 47.1349C155.044 47.82 154.316 48.3927 154.23 48.3112C154.214 48.2964 154.218 48.2273 154.276 48.1113C154.333 47.9952 154.416 47.8385 154.522 47.6064C154.705 47.182 154.857 46.7438 154.976 46.2956C155.085 45.866 155.161 45.4281 155.203 44.9859C155.264 44.462 155.296 43.9349 155.3 43.4072C155.314 42.3531 155.439 41.3496 155.689 39.3426C155.838 38.1391 155.906 37.5355 156.046 36.8566C156.223 36.0033 156.45 35.1619 156.726 34.3374C156.99 33.5068 157.315 32.6985 157.698 31.9193C158.394 30.4135 159.412 29.0924 160.675 28.0571C161.295 27.5115 162.027 26.8684 163.106 26.3105C164.185 25.7526 165.531 25.323 165.634 25.5378C165.725 25.7193 164.84 26.176 163.692 27.2906Z" fill="#EB3846"/>
<path d="M163.692 27.2906C162.726 28.2299 162.172 29.0594 161.072 30.7171C160.163 32.0748 159.71 32.7599 159.286 33.7745C158.946 34.5929 158.776 35.2335 158.444 36.49C158.098 37.8021 157.898 38.8353 157.742 39.661C157.518 40.8361 157.527 40.9842 157.179 42.8703C156.948 44.1269 156.796 44.8563 156.401 45.7586C156.194 46.254 155.922 46.7172 155.592 47.1349C155.044 47.82 154.316 48.3927 154.23 48.3112C154.214 48.2964 154.218 48.2273 154.276 48.1113C154.333 47.9952 154.416 47.8385 154.522 47.6064C154.705 47.182 154.857 46.7438 154.976 46.2956C155.085 45.866 155.161 45.4281 155.203 44.9859C155.264 44.462 155.296 43.9349 155.3 43.4072C155.314 42.3531 155.439 41.3496 155.689 39.3426C155.838 38.1391 155.906 37.5355 156.046 36.8566C156.223 36.0033 156.45 35.1619 156.726 34.3374C156.99 33.5068 157.315 32.6985 157.698 31.9193C158.394 30.4135 159.412 29.0924 160.675 28.0571C161.295 27.5115 162.027 26.8684 163.106 26.3105C164.185 25.7526 165.531 25.323 165.634 25.5378C165.725 25.7193 164.84 26.176 163.692 27.2906Z" fill="#EB3846"/>
<path d="M191.99 79.1413C191.99 79.1413 191.94 79.521 191.74 81.4246C191.626 82.4817 191.587 83.3968 191.501 85.2219C191.408 87.2272 191.462 87.3044 191.364 89.5227C191.32 90.5223 191.273 91.6051 191.16 92.9893C191.091 93.8468 190.977 95.2457 190.784 96.5564C190.577 97.9467 190.257 100.084 189.247 102.589C188.39 104.715 187.194 106.695 185.704 108.455C184.609 109.742 183.35 110.885 181.956 111.856C181.055 112.474 180.097 113.01 179.094 113.456C178.408 113.754 177.704 114.011 176.986 114.226C175.781 114.613 175.705 114.553 175.693 114.526C175.631 114.404 176.319 113.993 177.156 113.393C177.156 113.393 177.811 112.927 179.535 111.493C181.713 109.689 183.246 106.793 183.792 105.759C184.859 103.746 185.348 102.157 185.972 100.125C186.593 98.0788 187.083 95.9973 187.441 93.8921C187.906 91.3393 188.235 88.6665 188.362 87.6584C188.531 86.2827 188.705 84.7185 189.213 82.7586C189.213 82.7586 189.504 81.6402 190.406 79.6582C190.64 79.1743 190.925 78.7161 191.258 78.2912C191.549 77.9139 191.875 77.4925 192.041 77.5562C192.208 77.6199 192.117 78.1785 191.99 79.1413Z" fill="#EB3846"/>
<path d="M191.99 79.1413C191.99 79.1413 191.94 79.521 191.74 81.4246C191.626 82.4817 191.587 83.3968 191.501 85.2219C191.408 87.2272 191.462 87.3044 191.364 89.5227C191.32 90.5223 191.273 91.6051 191.16 92.9893C191.091 93.8468 190.977 95.2457 190.784 96.5564C190.577 97.9467 190.257 100.084 189.247 102.589C188.39 104.715 187.194 106.695 185.704 108.455C184.609 109.742 183.35 110.885 181.956 111.856C181.055 112.474 180.097 113.01 179.094 113.456C178.408 113.754 177.704 114.011 176.986 114.226C175.781 114.613 175.705 114.553 175.693 114.526C175.631 114.404 176.319 113.993 177.156 113.393C177.156 113.393 177.811 112.927 179.535 111.493C181.713 109.689 183.246 106.793 183.792 105.759C184.859 103.746 185.348 102.157 185.972 100.125C186.593 98.0788 187.083 95.9973 187.441 93.8921C187.906 91.3393 188.235 88.6665 188.362 87.6584C188.531 86.2827 188.705 84.7185 189.213 82.7586C189.213 82.7586 189.504 81.6402 190.406 79.6582C190.64 79.1743 190.925 78.7161 191.258 78.2912C191.549 77.9139 191.875 77.4925 192.041 77.5562C192.208 77.6199 192.117 78.1785 191.99 79.1413Z" fill="#EB3846"/>
<path d="M198.07 86.5601C198.07 88.0052 198.07 88.9101 197.871 90.1443C197.707 91.1383 197.463 92.1172 197.139 93.0712C196.729 94.3639 196.415 95.3493 195.676 96.5225C195.271 97.1642 194.805 97.7647 194.283 98.3153C193.213 99.4714 191.862 100.531 191.694 100.373C191.526 100.214 192.516 99.275 193.419 97.3847C193.841 96.4892 194.174 95.5542 194.412 94.5932C194.986 92.4676 195.036 90.7797 195.076 89.0516C195.117 87.3235 195.025 86.1345 194.845 83.7747C194.675 81.5697 194.577 80.2929 194.297 78.4989C193.974 76.4367 193.688 75.4671 193.566 73.3866C193.515 72.4928 193.521 71.5967 193.582 70.7036C193.657 69.0926 193.802 68.5084 194.013 67.9999C194.226 67.4876 194.517 67.0116 194.876 66.5889C194.834 67.4962 194.856 68.4054 194.942 69.3097C195.052 70.3366 195.229 71.3552 195.474 72.3585C195.819 73.8622 195.962 74.0952 196.668 76.6062C197.172 78.405 197.428 79.3245 197.597 80.3233C197.784 81.438 197.854 82.3405 197.93 83.31C197.983 83.9832 198.07 85.0966 198.07 86.5601Z" fill="#EB3846"/>
<path d="M198.07 86.5601C198.07 88.0052 198.07 88.9101 197.871 90.1443C197.707 91.1383 197.463 92.1172 197.139 93.0712C196.729 94.3639 196.415 95.3493 195.676 96.5225C195.271 97.1642 194.805 97.7647 194.283 98.3153C193.213 99.4714 191.862 100.531 191.694 100.373C191.526 100.214 192.516 99.275 193.419 97.3847C193.841 96.4892 194.174 95.5542 194.412 94.5932C194.986 92.4676 195.036 90.7797 195.076 89.0516C195.117 87.3235 195.025 86.1345 194.845 83.7747C194.675 81.5697 194.577 80.2929 194.297 78.4989C193.974 76.4367 193.688 75.4671 193.566 73.3866C193.515 72.4928 193.521 71.5967 193.582 70.7036C193.657 69.0926 193.802 68.5084 194.013 67.9999C194.226 67.4876 194.517 67.0116 194.876 66.5889C194.834 67.4962 194.856 68.4054 194.942 69.3097C195.052 70.3366 195.229 71.3552 195.474 72.3585C195.819 73.8622 195.962 74.0952 196.668 76.6062C197.172 78.405 197.428 79.3245 197.597 80.3233C197.784 81.438 197.854 82.3405 197.93 83.31C197.983 83.9832 198.07 85.0966 198.07 86.5601Z" fill="#EB3846"/>
<path d="M184.491 92.2196C183.98 93.8937 184.115 93.7495 183.536 95.7326C183.245 96.7235 182.736 98.4448 181.924 100.578C181.052 102.87 180.234 104.567 179.96 105.128C179.087 106.917 178.221 108.689 176.688 110.814C175.938 111.845 175.131 112.836 174.272 113.781C173.615 114.533 172.908 115.242 172.157 115.903C171.187 116.737 170.142 117.481 169.035 118.127C167.73 118.896 166.347 119.526 164.907 120.007C163.751 120.419 162.551 120.701 161.33 120.848C159.902 121.009 158.81 120.931 157.655 120.848C157.154 120.812 155.591 120.699 155.591 120.551C155.591 120.384 157.593 120.567 159.819 120.007C162.596 119.308 164.473 117.768 166.264 116.298C168.106 114.785 169.269 113.401 170.191 112.293C170.596 111.809 171.794 110.333 174.369 106.161C176.751 102.296 179.7 97.0954 180.679 94.8204C180.923 94.2437 181.204 93.6825 181.519 93.1402C181.905 92.4715 182.236 92.0245 182.894 91.1293C183.432 90.3814 184.016 89.6658 184.641 88.9864C185.251 88.3286 185.56 88.0003 185.68 88.0633C185.937 88.1978 185.28 89.6429 184.491 92.2196Z" fill="#EB3846"/>
<path d="M184.491 92.2196C183.98 93.8937 184.115 93.7495 183.536 95.7326C183.245 96.7235 182.736 98.4448 181.924 100.578C181.052 102.87 180.234 104.567 179.96 105.128C179.087 106.917 178.221 108.689 176.688 110.814C175.938 111.845 175.131 112.836 174.272 113.781C173.615 114.533 172.908 115.242 172.157 115.903C171.187 116.737 170.142 117.481 169.035 118.127C167.73 118.896 166.347 119.526 164.907 120.007C163.751 120.419 162.551 120.701 161.33 120.848C159.902 121.009 158.81 120.931 157.655 120.848C157.154 120.812 155.591 120.699 155.591 120.551C155.591 120.384 157.593 120.567 159.819 120.007C162.596 119.308 164.473 117.768 166.264 116.298C168.106 114.785 169.269 113.401 170.191 112.293C170.596 111.809 171.794 110.333 174.369 106.161C176.751 102.296 179.7 97.0954 180.679 94.8204C180.923 94.2437 181.204 93.6825 181.519 93.1402C181.905 92.4715 182.236 92.0245 182.894 91.1293C183.432 90.3814 184.016 89.6658 184.641 88.9864C185.251 88.3286 185.56 88.0003 185.68 88.0633C185.937 88.1978 185.28 89.6429 184.491 92.2196Z" fill="#EB3846"/>
<path d="M140.976 64.3046L138.396 59.026H136.065V58.021H137.95L137.008 55.708H136.351L136.065 56.6268L135.16 56.6009L134.63 56.1859V54.9924H133.411V56.4753L133.685 58.1589L133.213 58.1466L131.675 56.261L131.204 56.2746L131.196 56.6132H130.25L126.36 53.0773L131.303 48.3184L139.339 53.7473L140.976 64.3046Z" fill="#EB3846"/>
<path d="M140.976 64.3046L138.396 59.026H136.065V58.021H137.95L137.008 55.708H136.351L136.065 56.6268L135.16 56.6009L134.63 56.1859V54.9924H133.411V56.4753L133.685 58.1589L133.213 58.1466L131.675 56.261L131.204 56.2746L131.196 56.6132H130.25L126.36 53.0773L131.303 48.3184L139.339 53.7473L140.976 64.3046Z" fill="#EB3846"/>
<path d="M177.961 94.4869C177.887 94.3832 177.525 94.5202 177.212 94.6387C176.734 94.8139 176.282 95.0529 175.868 95.3495C173.334 97.313 170.644 100.222 170.644 100.222C169.199 101.787 168.098 102.883 166.655 104.319C165.336 105.632 164.392 106.531 163.33 107.476C162.677 108.057 162.41 108.273 161.131 109.357C157.73 112.247 158.025 112.072 157.14 112.783C155.446 114.171 153.619 115.386 151.687 116.41C150.267 117.183 148.775 117.813 147.232 118.29C145.609 118.786 143.936 119.101 142.245 119.23C141.227 119.305 140.167 119.312 139.19 119.295L140.345 116.6L132.754 117.487L137.309 123.682L138.47 120.967C139.484 121.29 140.525 121.516 141.581 121.642C143.792 121.945 146.035 121.899 148.232 121.508C150.631 121.071 152.359 120.314 153.751 119.695C155.95 118.708 157.498 117.698 158.738 116.874C160.3 115.837 161.789 114.692 163.195 113.448C165.031 111.809 166.722 110.011 168.248 108.074C168.813 107.36 169.512 106.366 170.908 104.381C172.619 101.954 173.466 100.743 174.034 99.8145C174.479 99.0458 174.969 98.304 175.5 97.5931C176.355 96.4664 176.897 95.8456 176.897 95.8456C177.584 95.0669 178.055 94.6239 177.961 94.4869Z" fill="#EB3846"/>
<path d="M177.961 94.4869C177.887 94.3832 177.525 94.5202 177.212 94.6387C176.734 94.8139 176.282 95.0529 175.868 95.3495C173.334 97.313 170.644 100.222 170.644 100.222C169.199 101.787 168.098 102.883 166.655 104.319C165.336 105.632 164.392 106.531 163.33 107.476C162.677 108.057 162.41 108.273 161.131 109.357C157.73 112.247 158.025 112.072 157.14 112.783C155.446 114.171 153.619 115.386 151.687 116.41C150.267 117.183 148.775 117.813 147.232 118.29C145.609 118.786 143.936 119.101 142.245 119.23C141.227 119.305 140.167 119.312 139.19 119.295L140.345 116.6L132.754 117.487L137.309 123.682L138.47 120.967C139.484 121.29 140.525 121.516 141.581 121.642C143.792 121.945 146.035 121.899 148.232 121.508C150.631 121.071 152.359 120.314 153.751 119.695C155.95 118.708 157.498 117.698 158.738 116.874C160.3 115.837 161.789 114.692 163.195 113.448C165.031 111.809 166.722 110.011 168.248 108.074C168.813 107.36 169.512 106.366 170.908 104.381C172.619 101.954 173.466 100.743 174.034 99.8145C174.479 99.0458 174.969 98.304 175.5 97.5931C176.355 96.4664 176.897 95.8456 176.897 95.8456C177.584 95.0669 178.055 94.6239 177.961 94.4869Z" fill="#EB3846"/>
<path d="M195.786 25.1981L190.233 20L189.499 23.0222C189.296 22.9508 189.072 22.8771 188.824 22.8094C188.181 22.6445 187.523 22.5453 186.859 22.5132C186.227 22.4626 185.592 22.4489 184.958 22.4721C183.916 22.5165 182.88 22.6626 181.866 22.9085C180.919 23.1007 179.993 23.3871 179.103 23.7632C178.385 24.0751 177.86 24.387 176.806 25.0132C175.95 25.5257 175.35 25.8811 174.677 26.3623C173.484 27.2157 172.744 27.9701 171.548 29.1922C171.214 29.5319 170.214 30.5643 169.018 32.0198C168.161 33.0679 167.513 33.954 167.121 34.4871C165.805 36.2931 165.672 36.6812 164.858 37.4161C164.064 38.1306 163.29 38.573 163.361 38.6988C163.432 38.8245 164.258 38.4896 164.392 38.4352C165.329 38.0511 166.197 37.5178 166.96 36.8564C168.002 35.98 168.716 35.3127 169.322 34.7506C170.405 33.7509 171.236 33.0038 172.917 31.5265C174.465 30.1678 174.819 29.8668 175.248 29.5525C175.677 29.2382 175.51 29.3869 177.644 27.9737C178.714 27.2653 179.062 27.0259 179.708 26.6911C180.319 26.3731 180.833 26.1616 181.305 25.9658C181.957 25.6889 182.624 25.4468 183.302 25.2404C184.106 24.9987 184.733 24.8778 184.9 24.8451C185.56 24.7182 186.339 24.6203 188.495 24.6142H189.117L188.457 27.3451L195.786 25.1981Z" fill="#EB3846"/>
<path d="M195.786 25.1981L190.233 20L189.499 23.0222C189.296 22.9508 189.072 22.8771 188.824 22.8094C188.181 22.6445 187.523 22.5453 186.859 22.5132C186.227 22.4626 185.592 22.4489 184.958 22.4721C183.916 22.5165 182.88 22.6626 181.866 22.9085C180.919 23.1007 179.993 23.3871 179.103 23.7632C178.385 24.0751 177.86 24.387 176.806 25.0132C175.95 25.5257 175.35 25.8811 174.677 26.3623C173.484 27.2157 172.744 27.9701 171.548 29.1922C171.214 29.5319 170.214 30.5643 169.018 32.0198C168.161 33.0679 167.513 33.954 167.121 34.4871C165.805 36.2931 165.672 36.6812 164.858 37.4161C164.064 38.1306 163.29 38.573 163.361 38.6988C163.432 38.8245 164.258 38.4896 164.392 38.4352C165.329 38.0511 166.197 37.5178 166.96 36.8564C168.002 35.98 168.716 35.3127 169.322 34.7506C170.405 33.7509 171.236 33.0038 172.917 31.5265C174.465 30.1678 174.819 29.8668 175.248 29.5525C175.677 29.2382 175.51 29.3869 177.644 27.9737C178.714 27.2653 179.062 27.0259 179.708 26.6911C180.319 26.3731 180.833 26.1616 181.305 25.9658C181.957 25.6889 182.624 25.4468 183.302 25.2404C184.106 24.9987 184.733 24.8778 184.9 24.8451C185.56 24.7182 186.339 24.6203 188.495 24.6142H189.117L188.457 27.3451L195.786 25.1981Z" fill="#EB3846"/>
<path d="M161.53 94.0071L157.56 96.3194L156.062 97.1911L150.793 95.9509L145.583 97.1762H145.582L145.515 97.1836L144.019 96.312L140.063 94.0095L147.024 94.7704L147.026 94.7691H147.028L149.191 93.6571L150.793 90.3398L152.396 93.6634L154.546 94.7704H154.547L161.53 94.0071Z" fill="#EB3846"/>
<path d="M161.53 94.0071L157.56 96.3194L156.062 97.1911L150.793 95.9509L145.583 97.1762H145.582L145.515 97.1836L144.019 96.312L140.063 94.0095L147.024 94.7704L147.026 94.7691H147.028L149.191 93.6571L150.793 90.3398L152.396 93.6634L154.546 94.7704H154.547L161.53 94.0071Z" fill="#EB3846"/>
</g>
<defs>
<filter id="filter0_f_112_2" x="0.360107" y="0" width="329.932" height="143.683" filterUnits="userSpaceOnUse" color-interpolation-filters="sRGB">
<feFlood flood-opacity="0" result="BackgroundImageFix"/>
<feBlend mode="normal" in="SourceGraphic" in2="BackgroundImageFix" result="shape"/>
<feGaussianBlur stdDeviation="10" result="effect1_foregroundBlur_112_2"/>
</filter>
<linearGradient id="paint0_linear_112_2" x1="275" y1="49" x2="275" y2="112" gradientUnits="userSpaceOnUse">
<stop stop-color="#EB3846"/>
<stop offset="1" stop-color="white" stop-opacity="0"/>
<stop offset="1" stop-color="white" stop-opacity="0.65"/>
</linearGradient>
<linearGradient id="paint1_linear_112_2" x1="67.5" y1="49" x2="67.5" y2="112" gradientUnits="userSpaceOnUse">
<stop stop-color="#EB3846"/>
<stop offset="1" stop-color="white" stop-opacity="0"/>
<stop offset="1" stop-color="white" stop-opacity="0.65"/>
</linearGradient>
<linearGradient id="paint2_linear_112_2" x1="150.797" y1="77.0938" x2="150.797" y2="89.8828" gradientUnits="userSpaceOnUse">
<stop stop-color="#EB3846"/>
<stop offset="1" stop-color="white" stop-opacity="0"/>
<stop offset="1" stop-color="white" stop-opacity="0.65"/>
</linearGradient>
<linearGradient id="paint3_linear_112_2" x1="167.924" y1="48.3184" x2="167.924" y2="64.3046" gradientUnits="userSpaceOnUse">
<stop stop-color="#EB3846"/>
<stop offset="1" stop-color="white" stop-opacity="0"/>
<stop offset="1" stop-color="white" stop-opacity="0.65"/>
</linearGradient>
<linearGradient id="paint4_linear_112_2" x1="167.924" y1="48.3184" x2="167.924" y2="64.3046" gradientUnits="userSpaceOnUse">
<stop stop-color="#EB3846"/>
<stop offset="1" stop-color="white" stop-opacity="0"/>
<stop offset="1" stop-color="white" stop-opacity="0.65"/>
</linearGradient>
<linearGradient id="paint5_linear_112_2" x1="168.609" y1="22.7412" x2="168.609" y2="42.3815" gradientUnits="userSpaceOnUse">
<stop stop-color="#EB3846"/>
<stop offset="1" stop-color="white" stop-opacity="0"/>
<stop offset="1" stop-color="white" stop-opacity="0.65"/>
</linearGradient>
<linearGradient id="paint6_linear_112_2" x1="168.609" y1="22.7412" x2="168.609" y2="42.3815" gradientUnits="userSpaceOnUse">
<stop stop-color="#EB3846"/>
<stop offset="1" stop-color="white" stop-opacity="0"/>
<stop offset="1" stop-color="white" stop-opacity="0.65"/>
</linearGradient>
<linearGradient id="paint7_linear_112_2" x1="188.021" y1="31.875" x2="188.021" y2="45.1208" gradientUnits="userSpaceOnUse">
<stop stop-color="#EB3846"/>
<stop offset="1" stop-color="white" stop-opacity="0"/>
<stop offset="1" stop-color="white" stop-opacity="0.65"/>
</linearGradient>
<linearGradient id="paint8_linear_112_2" x1="195.557" y1="42.3809" x2="195.557" y2="62.4779" gradientUnits="userSpaceOnUse">
<stop stop-color="#EB3846"/>
<stop offset="1" stop-color="white" stop-opacity="0"/>
<stop offset="1" stop-color="white" stop-opacity="0.65"/>
</linearGradient>
<linearGradient id="paint9_linear_112_2" x1="195.557" y1="42.3809" x2="195.557" y2="62.4779" gradientUnits="userSpaceOnUse">
<stop stop-color="#EB3846"/>
<stop offset="1" stop-color="white" stop-opacity="0"/>
<stop offset="1" stop-color="white" stop-opacity="0.65"/>
</linearGradient>
<linearGradient id="paint10_linear_112_2" x1="198.527" y1="54.7129" x2="198.527" y2="82.1179" gradientUnits="userSpaceOnUse">
<stop stop-color="#EB3846"/>
<stop offset="1" stop-color="white" stop-opacity="0"/>
<stop offset="1" stop-color="white" stop-opacity="0.65"/>
</linearGradient>
<linearGradient id="paint11_linear_112_2" x1="198.527" y1="54.7129" x2="198.527" y2="82.1179" gradientUnits="userSpaceOnUse">
<stop stop-color="#EB3846"/>
<stop offset="1" stop-color="white" stop-opacity="0"/>
<stop offset="1" stop-color="white" stop-opacity="0.65"/>
</linearGradient>
<linearGradient id="paint12_linear_112_2" x1="152.851" y1="34.1592" x2="152.851" y2="55.6265" gradientUnits="userSpaceOnUse">
<stop stop-color="#EB3846"/>
<stop offset="1" stop-color="white" stop-opacity="0"/>
<stop offset="1" stop-color="white" stop-opacity="0.65"/>
</linearGradient>
<linearGradient id="paint13_linear_112_2" x1="152.851" y1="34.1592" x2="152.851" y2="55.6265" gradientUnits="userSpaceOnUse">
<stop stop-color="#EB3846"/>
<stop offset="1" stop-color="white" stop-opacity="0"/>
<stop offset="1" stop-color="white" stop-opacity="0.65"/>
</linearGradient>
<linearGradient id="paint14_linear_112_2" x1="159.931" y1="25.4814" x2="159.931" y2="48.319" gradientUnits="userSpaceOnUse">
<stop stop-color="#EB3846"/>
<stop offset="1" stop-color="white" stop-opacity="0"/>
<stop offset="1" stop-color="white" stop-opacity="0.65"/>
</linearGradient>
<linearGradient id="paint15_linear_112_2" x1="159.931" y1="25.4814" x2="159.931" y2="48.319" gradientUnits="userSpaceOnUse">
<stop stop-color="#EB3846"/>
<stop offset="1" stop-color="white" stop-opacity="0"/>
<stop offset="1" stop-color="white" stop-opacity="0.65"/>
</linearGradient>
<linearGradient id="paint16_linear_112_2" x1="183.91" y1="77.5498" x2="183.91" y2="114.547" gradientUnits="userSpaceOnUse">
<stop stop-color="#EB3846"/>
<stop offset="1" stop-color="white" stop-opacity="0"/>
<stop offset="1" stop-color="white" stop-opacity="0.65"/>
</linearGradient>
<linearGradient id="paint17_linear_112_2" x1="183.91" y1="77.5498" x2="183.91" y2="114.547" gradientUnits="userSpaceOnUse">
<stop stop-color="#EB3846"/>
<stop offset="1" stop-color="white" stop-opacity="0"/>
<stop offset="1" stop-color="white" stop-opacity="0.65"/>
</linearGradient>
<linearGradient id="paint18_linear_112_2" x1="194.873" y1="66.5889" x2="194.873" y2="100.388" gradientUnits="userSpaceOnUse">
<stop stop-color="#EB3846"/>
<stop offset="1" stop-color="white" stop-opacity="0"/>
<stop offset="1" stop-color="white" stop-opacity="0.65"/>
</linearGradient>
<linearGradient id="paint19_linear_112_2" x1="194.873" y1="66.5889" x2="194.873" y2="100.388" gradientUnits="userSpaceOnUse">
<stop stop-color="#EB3846"/>
<stop offset="1" stop-color="white" stop-opacity="0"/>
<stop offset="1" stop-color="white" stop-opacity="0.65"/>
</linearGradient>
<linearGradient id="paint20_linear_112_2" x1="170.664" y1="88.0557" x2="170.664" y2="120.942" gradientUnits="userSpaceOnUse">
<stop stop-color="#EB3846"/>
<stop offset="1" stop-color="white" stop-opacity="0"/>
<stop offset="1" stop-color="white" stop-opacity="0.65"/>
</linearGradient>
<linearGradient id="paint21_linear_112_2" x1="170.664" y1="88.0557" x2="170.664" y2="120.942" gradientUnits="userSpaceOnUse">
<stop stop-color="#EB3846"/>
<stop offset="1" stop-color="white" stop-opacity="0"/>
<stop offset="1" stop-color="white" stop-opacity="0.65"/>
</linearGradient>
<linearGradient id="paint22_linear_112_2" x1="133.668" y1="48.3184" x2="133.668" y2="64.3046" gradientUnits="userSpaceOnUse">
<stop stop-color="#EB3846"/>
<stop offset="1" stop-color="white" stop-opacity="0"/>
<stop offset="1" stop-color="white" stop-opacity="0.65"/>
</linearGradient>
<linearGradient id="paint23_linear_112_2" x1="133.668" y1="48.3184" x2="133.668" y2="64.3046" gradientUnits="userSpaceOnUse">
<stop stop-color="#EB3846"/>
<stop offset="1" stop-color="white" stop-opacity="0"/>
<stop offset="1" stop-color="white" stop-opacity="0.65"/>
</linearGradient>
<linearGradient id="paint24_linear_112_2" x1="155.364" y1="94.4502" x2="155.364" y2="123.682" gradientUnits="userSpaceOnUse">
<stop stop-color="#EB3846"/>
<stop offset="1" stop-color="white" stop-opacity="0"/>
<stop offset="1" stop-color="white" stop-opacity="0.65"/>
</linearGradient>
<linearGradient id="paint25_linear_112_2" x1="155.364" y1="94.4502" x2="155.364" y2="123.682" gradientUnits="userSpaceOnUse">
<stop stop-color="#EB3846"/>
<stop offset="1" stop-color="white" stop-opacity="0"/>
<stop offset="1" stop-color="white" stop-opacity="0.65"/>
</linearGradient>
<linearGradient id="paint26_linear_112_2" x1="179.571" y1="20" x2="179.571" y2="38.7268" gradientUnits="userSpaceOnUse">
<stop stop-color="#EB3846"/>
<stop offset="1" stop-color="white" stop-opacity="0"/>
<stop offset="1" stop-color="white" stop-opacity="0.65"/>
</linearGradient>
<linearGradient id="paint27_linear_112_2" x1="179.571" y1="20" x2="179.571" y2="38.7268" gradientUnits="userSpaceOnUse">
<stop stop-color="#EB3846"/>
<stop offset="1" stop-color="white" stop-opacity="0"/>
<stop offset="1" stop-color="white" stop-opacity="0.65"/>
</linearGradient>
<linearGradient id="paint28_linear_112_2" x1="150.797" y1="90.3398" x2="150.797" y2="97.1911" gradientUnits="userSpaceOnUse">
<stop stop-color="#EB3846"/>
<stop offset="1" stop-color="white" stop-opacity="0"/>
<stop offset="1" stop-color="white" stop-opacity="0.65"/>
</linearGradient>
<linearGradient id="paint29_linear_112_2" x1="150.797" y1="90.3398" x2="150.797" y2="97.1911" gradientUnits="userSpaceOnUse">
<stop stop-color="#EB3846"/>
<stop offset="1" stop-color="white" stop-opacity="0"/>
<stop offset="1" stop-color="white" stop-opacity="0.65"/>
</linearGradient>
</defs>
</svg>
